<?xml version="1.0" standalone="no"?>
<!DOCTYPE svg PUBLIC "-//W3C//DTD SVG 20010904//EN"
 "http://www.w3.org/TR/2001/REC-SVG-20010904/DTD/svg10.dtd">
<svg version="1.0" xmlns="http://www.w3.org/2000/svg"
 width="3124.000000pt" height="2239.000000pt" viewBox="0 0 3124.000000 2239.000000"
 preserveAspectRatio="xMidYMid meet">

<g transform="translate(0.000000,2239.000000) scale(0.100000,-0.100000)"
fill="#000000" stroke="none">
<path d="M16300 15026 c-198 -53 -354 -260 -421 -555 -26 -113 -35 -321 -20
-434 12 -91 58 -250 69 -243 4 2 8 -7 8 -20 2 -34 59 -126 118 -191 98 -109
271 -159 409 -119 31 9 57 20 57 25 0 4 6 8 14 8 19 0 86 43 86 55 0 6 3 9 6
5 3 -3 21 8 40 25 19 17 32 33 30 35 -2 2 11 19 28 38 17 18 44 58 61 89 29
54 29 56 11 73 -14 14 -20 15 -23 5 -7 -18 -65 -70 -115 -104 -44 -30 -110
-44 -162 -34 -52 10 -125 65 -163 121 -18 28 -38 56 -43 62 -6 7 -10 14 -9 15
1 2 -10 39 -24 83 -44 141 -60 276 -55 479 7 256 43 395 124 465 38 34 59 38
99 19 45 -20 64 -73 74 -212 11 -143 30 -199 82 -238 69 -52 129 -48 188 10
119 118 40 390 -143 497 -86 50 -227 68 -326 41z"/>
<path d="M14973 14985 c-238 -66 -387 -290 -424 -636 -21 -194 16 -434 95
-603 40 -89 113 -189 128 -180 7 5 8 2 3 -5 -9 -16 63 -83 125 -115 65 -34
143 -50 209 -42 79 8 133 25 125 38 -4 6 -3 8 4 4 13 -8 63 14 57 25 -3 4 0
11 6 15 8 4 9 3 5 -4 -12 -19 3 -14 40 14 19 15 57 56 85 92 79 100 162 295
136 321 -18 18 -24 14 -56 -39 -17 -27 -29 -50 -27 -50 3 0 -12 -18 -32 -41
-69 -77 -172 -107 -254 -76 -24 9 -45 16 -48 14 -3 -1 -23 17 -44 40 -21 24
-43 40 -49 36 -5 -3 -7 -1 -3 5 3 6 -7 31 -24 56 -72 106 -137 286 -170 468
-24 135 -27 336 -6 416 34 126 113 177 176 113 16 -16 31 -27 32 -25 2 2 4 -5
5 -14 3 -36 53 -203 73 -242 11 -22 25 -38 31 -35 5 4 8 1 7 -5 -6 -23 49 -53
95 -53 95 0 160 76 159 188 0 121 -68 233 -180 297 -50 28 -67 32 -142 35 -53
2 -105 -3 -137 -12z"/>
<path d="M17620 14601 c-51 -17 -116 -51 -165 -85 -182 -130 -327 -458 -342
-773 -9 -197 22 -340 101 -462 98 -152 289 -249 437 -221 86 16 156 58 252
150 76 72 89 89 83 108 -4 12 -11 22 -14 22 -4 0 -32 -19 -62 -41 -135 -102
-233 -105 -330 -9 -83 80 -120 198 -120 380 0 98 24 276 39 293 7 7 178 -72
471 -217 l134 -67 13 36 c7 20 20 87 29 148 38 260 -12 481 -141 625 -29 32
-53 51 -62 48 -8 -3 -11 -2 -8 4 3 5 -20 21 -52 36 -47 22 -75 28 -148 30 -49
2 -101 0 -115 -5z m241 -117 c80 -41 92 -194 34 -421 -20 -76 -39 -140 -43
-144 -4 -3 -80 29 -169 72 l-162 79 16 52 c51 176 154 346 223 371 29 10 71 7
101 -9z"/>
<path d="M13690 14507 c-98 -65 -203 -134 -277 -180 -31 -20 -40 -31 -36 -46
4 -17 13 -19 66 -18 60 2 61 2 89 -38 15 -22 103 -226 194 -454 l166 -414 -16
-87 c-28 -155 -72 -220 -146 -220 -80 0 -78 -3 -340 655 -101 253 -187 464
-191 468 -5 7 -373 -219 -412 -254 -5 -4 -6 -16 -3 -27 6 -16 13 -18 56 -14
86 8 91 0 270 -450 148 -369 233 -556 256 -565 8 -3 14 -11 14 -18 0 -20 77
-72 133 -91 91 -30 178 -1 269 90 59 59 106 151 138 271 l27 100 15 -35 c8
-19 21 -52 28 -72 8 -20 17 -35 22 -32 4 3 5 -1 2 -9 -11 -30 17 -26 72 10 31
21 71 47 89 58 137 85 265 172 265 180 -1 27 -16 34 -53 24 -50 -14 -86 7
-119 68 -15 26 -117 275 -228 553 -256 642 -243 610 -249 610 -3 0 -49 -29
-101 -63z"/>
<path d="M18662 13838 c-129 -63 -213 -206 -228 -388 -7 -91 21 -243 92 -485
41 -140 47 -172 48 -260 1 -88 -2 -105 -22 -136 -24 -39 -74 -69 -115 -69 -43
0 -102 53 -136 122 -49 99 -64 191 -56 333 4 66 8 132 8 148 1 15 6 27 12 27
5 0 2 8 -8 17 -9 9 -18 15 -21 12 -12 -13 -65 -129 -59 -129 5 0 3 -4 -3 -8
-15 -9 -86 -152 -77 -152 5 0 3 -4 -3 -8 -6 -4 -26 -37 -44 -74 -28 -56 -32
-69 -21 -82 10 -11 18 -13 31 -6 10 6 32 10 49 10 27 0 35 -9 92 -105 101
-169 196 -251 314 -268 98 -15 228 47 303 146 122 160 140 315 66 592 -20 77
-54 205 -75 285 -45 173 -49 242 -16 291 27 40 77 60 122 48 42 -12 100 -80
126 -147 27 -69 37 -255 21 -372 -11 -71 -7 -89 18 -90 12 0 213 418 206 429
-6 8 -24 10 -60 6 -62 -8 -71 0 -122 106 -24 49 -54 91 -95 131 -114 113 -224
137 -347 76z"/>
<path d="M11800 13815 c-9 -10 -9 -19 -2 -27 5 -7 17 -34 26 -60 26 -78 -2
-124 -108 -179 -119 -61 -175 -100 -233 -163 -238 -253 -279 -634 -102 -926
25 -41 129 -150 143 -150 5 0 17 -6 25 -13 28 -24 108 -48 178 -53 114 -10
257 30 499 139 170 76 241 98 320 99 118 1 189 -45 240 -157 68 -151 20 -356
-116 -496 -90 -91 -206 -139 -340 -139 -115 0 -239 44 -351 126 -51 37 -61 40
-77 21 -8 -10 6 -33 56 -94 37 -45 98 -120 135 -167 39 -48 74 -83 79 -79 7 4
8 1 3 -6 -4 -8 1 -22 14 -35 12 -11 51 -59 88 -106 36 -47 68 -87 70 -89 2 -3
9 1 15 7 8 8 11 41 9 96 -4 126 9 144 169 242 121 74 197 146 271 258 109 165
156 340 146 536 -10 179 -60 312 -160 430 -181 210 -381 210 -833 -1 -47 -22
-127 -54 -177 -71 -77 -25 -103 -30 -158 -26 -80 6 -120 28 -160 87 -40 62
-51 111 -47 210 4 117 42 197 135 290 94 93 156 116 308 116 105 0 113 -2 180
-35 39 -19 76 -34 83 -33 7 1 11 -1 8 -4 -6 -6 48 -53 61 -53 4 0 13 8 19 18
10 15 -17 52 -193 257 -113 132 -206 241 -207 243 -2 1 -9 -4 -16 -13z"/>
<path d="M19659 12850 c-133 -23 -240 -129 -289 -286 -30 -98 -35 -228 -16
-456 20 -246 20 -322 1 -380 -29 -84 -110 -138 -164 -108 -12 6 -27 8 -33 4
-6 -4 -8 -3 -5 3 4 6 -5 20 -18 33 -14 13 -35 48 -47 79 -20 49 -22 75 -23
201 0 143 1 147 38 254 27 76 35 112 28 119 -8 8 -18 4 -36 -13 -14 -13 -23
-25 -22 -27 2 -2 -18 -27 -45 -56 -26 -28 -48 -55 -48 -59 0 -4 -11 -19 -26
-34 -14 -16 -50 -58 -80 -95 -64 -79 -64 -99 1 -99 24 0 48 -6 54 -14 6 -7 25
-56 42 -107 66 -200 140 -308 254 -367 41 -22 64 -27 125 -27 96 0 172 34 247
111 133 136 154 265 117 744 -14 176 -14 226 -4 274 20 97 76 132 154 97 35
-15 48 -29 70 -73 57 -117 56 -265 -5 -454 -27 -84 -30 -124 -9 -124 4 0 65
71 134 158 70 86 133 164 140 173 21 26 -3 49 -52 49 -51 0 -64 17 -88 115
-25 105 -75 203 -136 267 -84 87 -159 115 -259 98z"/>
<path d="M15959 12639 c-11 -8 -10 -12 6 -25 31 -24 115 -65 115 -57 1 5 6 -2
13 -14 12 -21 12 -20 13 17 1 34 0 37 -13 24 -8 -8 -16 -14 -19 -14 -11 0 -51
27 -75 51 -19 18 -31 24 -40 18z"/>
<path d="M16105 12481 c-3 -6 -3 -11 2 -12 4 0 -1 -5 -12 -10 l-20 -9 20 2
c11 2 26 -1 33 -5 16 -11 15 3 -2 26 -9 12 -16 14 -21 8z"/>
<path d="M16008 12473 c7 -3 16 -2 19 1 4 3 -2 6 -13 5 -11 0 -14 -3 -6 -6z"/>
<path d="M16667 12460 c-9 -11 -17 -24 -17 -29 0 -5 -6 -11 -12 -14 -9 -3 -7
-10 7 -21 27 -21 33 -20 37 7 2 12 9 21 15 20 17 -4 36 25 29 44 -5 12 -9 14
-18 5 -15 -15 -32 -16 -23 -2 10 17 0 11 -18 -10z"/>
<path d="M15690 12431 c0 -5 6 -11 13 -14 8 -3 14 1 14 9 0 8 -6 14 -14 14 -7
0 -13 -4 -13 -9z"/>
<path d="M15842 12418 c-8 -11 -4 -21 19 -46 17 -18 35 -32 40 -32 6 0 24 -10
41 -21 23 -17 32 -19 41 -10 7 7 8 12 2 11 -22 -5 -36 1 -30 11 4 6 14 8 22 5
8 -4 11 -1 8 5 -4 6 -13 8 -21 5 -8 -3 -14 -2 -14 3 0 4 -22 18 -50 31 -51 24
-69 47 -27 36 109 -29 166 -31 140 -5 -18 18 -157 23 -171 7z m48 -48 c0 -5
-2 -10 -4 -10 -3 0 -8 5 -11 10 -3 6 -1 10 4 10 6 0 11 -4 11 -10z"/>
<path d="M16717 12410 c-3 -11 -2 -20 3 -20 12 0 21 28 11 35 -5 2 -11 -4 -14
-15z"/>
<path d="M18048 12423 c0 -5 -2 -12 -3 -18 -2 -5 -3 -21 -4 -35 -1 -21 -3 -22
-12 -10 -8 11 -9 8 -4 -13 3 -17 2 -26 -4 -23 -12 8 -32 -50 -24 -71 4 -11 3
-14 -5 -9 -13 8 -15 -6 -15 -84 0 -25 -1 -37 -4 -27 -6 24 -23 21 -24 -5 -1
-13 -2 -30 -3 -38 -1 -8 -6 -28 -13 -45 -22 -57 -85 -377 -82 -418 2 -34 -4
-56 -26 -99 -8 -16 -11 -28 -7 -28 11 0 38 20 28 20 -5 0 -1 9 8 19 13 15 14
20 4 24 -10 4 -10 6 0 6 6 1 12 13 12 27 0 14 4 23 9 20 11 -7 41 61 44 101 1
17 6 29 11 25 5 -3 6 9 3 29 -5 21 -4 29 2 20 6 -10 12 4 21 45 6 32 16 77 22
99 5 22 12 49 15 60 3 11 7 34 8 50 2 17 13 75 25 130 19 87 34 255 24 255 -2
0 -5 -3 -6 -7z m-7 -129 c-5 -16 -10 -21 -10 -12 -1 18 10 51 15 45 2 -1 -1
-16 -5 -33z m-31 -74 c0 -5 -2 -10 -4 -10 -3 0 -8 5 -11 10 -3 6 -1 10 4 10 6
0 11 -4 11 -10z m-13 -192 c-3 -8 -6 -5 -6 6 -1 11 2 17 5 13 3 -3 4 -12 1
-19z m-30 -60 c-3 -8 -6 -5 -6 6 -1 11 2 17 5 13 3 -3 4 -12 1 -19z m-9 -94
c-4 -3 -12 5 -18 18 -12 22 -12 22 6 6 10 -10 15 -20 12 -24z m-31 -6 c-3 -8
-6 -5 -6 6 -1 11 2 17 5 13 3 -3 4 -12 1 -19z m23 -53 c0 -5 -5 -3 -10 5 -5 8
-10 20 -10 25 0 6 5 3 10 -5 5 -8 10 -19 10 -25z m-50 -149 c0 -3 -4 -8 -10
-11 -5 -3 -10 -1 -10 4 0 6 5 11 10 11 6 0 10 -2 10 -4z"/>
<path d="M15483 12401 c1 -22 12 -28 21 -12 3 5 -1 14 -9 21 -11 9 -14 8 -12
-9z"/>
<path d="M15675 12410 c3 -6 2 -10 -3 -10 -9 0 -24 -81 -17 -89 2 -2 18 8 35
23 17 14 38 26 46 26 8 0 14 4 14 10 0 12 -35 31 -44 23 -3 -3 -6 -2 -6 4 0 6
-7 14 -16 17 -8 3 -12 2 -9 -4z"/>
<path d="M16592 12400 c7 -11 17 -20 22 -20 5 0 1 9 -9 20 -10 11 -20 20 -22
20 -2 0 2 -9 9 -20z"/>
<path d="M16140 12401 c0 -5 -15 -12 -32 -15 -28 -6 -30 -8 -16 -17 13 -7 26
-5 48 6 32 16 40 35 15 35 -8 0 -15 -4 -15 -9z"/>
<path d="M17322 12370 c-8 -13 -8 -20 -2 -20 6 0 13 7 17 15 9 24 -1 27 -15 5z"/>
<path d="M15786 12372 c-9 -15 4 -112 16 -112 9 0 13 9 22 50 6 28 -26 81 -38
62z"/>
<path d="M16695 12370 c3 -5 8 -10 11 -10 2 0 4 5 4 10 0 6 -5 10 -11 10 -5 0
-7 -4 -4 -10z"/>
<path d="M15525 12331 c-6 -20 0 -30 36 -58 12 -10 24 -10 48 -2 42 15 39 35
-6 44 -21 4 -45 13 -55 22 -14 13 -17 12 -23 -6z m83 -38 c2 -8 -6 -13 -22
-13 -28 0 -43 15 -24 23 20 8 41 3 46 -10z"/>
<path d="M15996 12320 c-3 -8 -9 -20 -12 -27 -4 -8 11 -14 46 -19 l51 -7 -19
-21 c-11 -11 -27 -36 -36 -54 -13 -24 -22 -32 -35 -27 -10 3 -29 1 -42 -4 -19
-7 -29 -4 -45 10 -12 12 -28 17 -37 13 -20 -7 -23 -24 -4 -24 6 0 -2 -8 -20
-16 -22 -11 -30 -21 -26 -32 5 -11 2 -14 -10 -9 -9 3 -17 2 -17 -3 0 -6 9 -10
21 -10 11 0 27 -6 35 -14 12 -13 12 -17 -3 -32 -17 -17 -17 -17 5 -12 12 3 20
2 16 -3 -3 -5 -14 -9 -25 -9 -12 0 -17 -4 -14 -11 4 -5 12 -8 18 -6 7 2 20 0
31 -5 13 -7 16 -7 12 1 -10 16 36 14 58 -2 17 -13 17 -14 1 -30 -24 -25 1 -21
41 7 21 14 31 27 25 31 -6 3 -11 13 -11 21 0 8 5 12 10 9 6 -4 8 -11 5 -16 -4
-5 1 -9 10 -9 9 0 13 5 10 11 -4 6 -1 10 6 8 26 -3 37 1 43 17 4 10 2 13 -7 8
-9 -6 -9 -4 1 8 9 11 10 18 2 23 -5 3 -10 16 -10 28 0 16 -3 18 -12 9 -15 -15
-28 -15 -28 -1 0 5 4 8 9 5 8 -6 21 15 21 35 0 16 -18 10 -23 -8 -3 -13 -5
-14 -6 -3 0 8 3 21 8 29 8 13 12 13 28 1 10 -8 15 -11 11 -6 -4 5 8 38 28 74
19 36 32 71 30 76 -2 6 -5 4 -5 -6 -1 -14 -6 -15 -38 -5 -21 6 -40 15 -43 19
-10 13 -49 4 -54 -12z m88 -95 c-19 -30 -26 -28 -17 3 3 12 12 22 19 22 12 0
11 -5 -2 -25z m-84 -105 c0 -5 -1 -11 -2 -12 -1 -2 4 -13 10 -25 11 -20 8 -23
-33 -44 -25 -12 -48 -20 -51 -16 -4 4 4 11 17 17 24 10 24 10 -3 7 -15 -2 -26
-1 -23 2 2 4 0 13 -6 21 -6 11 -9 8 -9 -13 0 -23 -2 -26 -14 -15 -8 7 -10 14
-6 16 5 2 6 10 4 17 -7 18 52 55 89 55 15 0 27 -4 27 -10z m50 -51 c0 -5 -4
-9 -10 -9 -5 0 -10 7 -10 16 0 8 5 12 10 9 6 -3 10 -10 10 -16z"/>
<path d="M16440 12331 c0 -6 17 -13 38 -17 43 -8 77 -23 52 -24 -8 0 1 -8 20
-18 40 -20 55 -67 24 -79 -13 -5 -5 -10 27 -20 59 -17 80 -17 57 1 -25 18 -23
21 21 36 33 11 46 11 73 0 50 -20 56 -30 18 -31 -19 0 -44 -4 -55 -9 -13 -6 7
-9 61 -9 45 -1 97 -3 115 -6 29 -4 30 -3 9 4 -21 8 -22 9 -5 10 11 0 31 -2 44
-6 23 -6 23 -7 5 -14 -13 -5 -4 -8 29 -8 48 -1 55 -8 37 -40 -7 -14 -21 -18
-62 -18 -29 0 -91 -3 -138 -7 -55 -5 -95 -3 -114 4 -23 8 -39 7 -77 -5 -51
-17 -65 -36 -49 -66 16 -28 32 -23 63 21 27 39 28 39 79 33 29 -4 63 -12 77
-20 30 -15 45 -17 37 -4 -10 16 82 33 156 30 59 -3 73 -1 74 11 0 8 2 25 2 38
1 12 7 22 13 22 7 0 9 -8 4 -22 -4 -13 -7 -31 -6 -40 0 -10 -5 -18 -11 -18 -6
0 -8 -12 -5 -29 3 -16 3 -52 -2 -80 -4 -27 -4 -48 1 -45 4 3 8 -4 8 -16 0 -13
-5 -20 -12 -18 -10 4 -48 -59 -48 -78 0 -15 22 1 37 26 9 17 21 30 27 30 5 0
14 7 21 16 10 14 13 14 26 2 8 -8 28 -17 46 -21 17 -3 44 -19 59 -34 18 -18
29 -23 32 -15 3 10 8 8 19 -5 8 -10 12 -12 8 -5 -3 6 -1 12 4 12 6 0 11 -7 11
-15 0 -11 11 -15 41 -15 28 0 38 -4 33 -12 -4 -6 -3 -8 3 -5 6 4 32 3 57 -2
26 -5 46 -5 46 0 0 5 5 9 10 9 6 0 10 -7 10 -15 0 -15 25 -20 77 -15 12 1 32
-4 44 -10 17 -10 20 -9 14 1 -6 9 -3 11 9 6 10 -4 20 -7 22 -7 2 0 4 -11 4
-24 0 -28 37 -55 86 -63 19 -3 37 -10 40 -14 3 -5 -8 -6 -23 -3 -48 9 -62 9
-63 -1 -1 -5 8 -12 20 -15 12 -3 21 -9 20 -14 0 -5 15 -11 35 -13 37 -4 41 1
25 41 -7 19 -6 26 3 26 8 0 8 3 -2 9 -11 7 -11 9 0 14 8 3 5 6 -8 6 -25 1 -39
-15 -21 -23 7 -3 5 -5 -5 -3 -10 1 -19 7 -19 12 -2 16 -28 38 -36 31 -3 -4 0
-11 8 -16 8 -5 11 -12 7 -17 -16 -16 -28 24 -24 79 3 31 1 60 -5 66 -12 12 -7
63 6 61 15 -2 26 25 13 33 -7 4 -7 8 -2 8 6 0 9 19 7 45 -3 34 0 46 12 51 20
8 21 30 1 38 -10 4 -17 -6 -25 -37 -6 -23 -15 -55 -20 -72 -5 -16 -11 -48 -14
-70 -6 -50 -36 -112 -46 -95 -11 18 -60 40 -89 39 l-26 -1 25 -7 c48 -14 -11
-18 -65 -5 -27 7 -42 13 -32 13 10 1 15 6 12 11 -3 6 0 10 7 10 8 0 5 5 -5 11
-16 10 -83 18 -155 20 -16 1 -22 6 -18 15 3 8 0 14 -5 14 -6 0 -9 -9 -6 -20 3
-11 1 -23 -5 -26 -10 -7 -6 138 5 183 3 13 2 25 -4 28 -5 4 -3 15 5 28 8 12
15 38 16 57 4 73 1 76 -25 26 -13 -27 -22 -52 -20 -56 3 -5 0 -10 -5 -12 -6
-2 -16 -41 -23 -88 -11 -76 -14 -85 -35 -88 -13 -2 -19 -8 -16 -14 5 -7 -2 -9
-22 -4 -16 4 -31 12 -32 17 -3 6 -9 5 -18 -2 -11 -9 -13 1 -9 62 6 99 14 163
24 210 9 41 -1 52 -18 22 -9 -16 -10 -16 -11 4 0 31 -35 19 -50 -18 -14 -34
-11 -33 -75 -14 -27 9 -55 13 -62 11 -7 -3 -13 -2 -13 3 0 5 -11 12 -25 15
-13 3 -36 11 -51 16 -26 10 -26 11 -8 24 10 8 22 12 26 10 4 -3 12 5 19 17 10
19 9 21 -6 16 -9 -4 -21 -7 -26 -7 -6 0 -7 -5 -4 -10 3 -6 -5 -14 -19 -20 -29
-11 -76 2 -76 20 0 6 -4 8 -10 5 -6 -4 -10 6 -10 22 -1 24 -2 25 -11 11 -12
-21 -27 -22 -66 -6 -15 6 -46 13 -68 14 -46 3 -81 10 -95 19 -6 3 -10 2 -10
-4z m173 -58 c-7 -2 -19 -2 -25 0 -7 3 -2 5 12 5 14 0 19 -2 13 -5z m52 -43
c3 -5 -1 -10 -10 -10 -9 0 -13 5 -10 10 3 6 8 10 10 10 2 0 7 -4 10 -10z m397
-45 c3 -14 1 -25 -3 -25 -5 0 -9 11 -9 25 0 14 2 25 4 25 2 0 6 -11 8 -25z
m-21 -88 c-13 -13 -15 1 -4 30 7 17 8 17 11 -1 2 -10 -1 -23 -7 -29z m520
-355 c-13 -2 -27 0 -32 5 -6 6 3 7 23 4 28 -4 29 -6 9 -9z m56 12 c-3 -3 -12
-4 -19 -1 -8 3 -5 6 6 6 11 1 17 -2 13 -5z"/>
<path d="M16926 12321 c-11 -4 -15 -10 -9 -14 5 -3 19 0 29 8 20 15 11 18 -20
6z"/>
<path d="M16985 12310 c6 -10 70 -40 84 -40 9 0 -72 49 -82 50 -5 0 -5 -5 -2
-10z"/>
<path d="M16872 12302 c-6 -2 -12 -8 -12 -13 0 -6 5 -7 11 -4 6 4 20 -2 32
-13 12 -11 33 -25 47 -31 24 -12 24 -12 5 4 -11 9 -19 21 -17 26 1 5 -4 9 -12
9 -8 0 -21 6 -28 13 -7 8 -19 12 -26 9z"/>
<path d="M16452 12283 c8 -10 7 -12 -5 -7 -13 5 -37 -21 -37 -40 0 -14 19 -4
24 12 3 9 4 3 2 -15 -2 -28 2 -34 26 -42 18 -6 26 -7 23 -1 -4 6 -13 10 -21
10 -11 0 -14 8 -11 28 9 52 12 57 37 64 20 5 17 6 -12 5 -30 -1 -35 -4 -26
-14z"/>
<path d="M16139 12225 c0 -39 -2 -80 -3 -93 -2 -20 -1 -21 11 -9 19 18 23 141
5 159 -9 9 -12 -2 -13 -57z"/>
<path d="M15826 12254 c-3 -9 -6 -26 -6 -39 0 -13 -4 -27 -10 -30 -13 -8 -13
-45 -1 -45 6 0 13 20 17 45 3 25 10 45 15 45 5 0 9 9 9 20 0 24 -15 27 -24 4z"/>
<path d="M15852 12230 c-17 -27 -15 -51 3 -44 8 4 13 10 10 14 -3 5 1 11 7 13
10 4 10 6 1 6 -7 1 -10 8 -7 16 9 21 1 19 -14 -5z"/>
<path d="M16190 12155 c0 -8 5 -15 11 -15 5 0 7 5 4 10 -3 6 10 0 30 -12 31
-17 38 -19 46 -7 7 12 9 11 9 -2 0 -8 16 -23 35 -32 34 -16 35 -19 29 -52 -5
-31 -4 -35 14 -35 12 0 26 -8 31 -17 14 -24 14 -7 1 18 -9 16 -7 19 9 19 10 0
21 7 25 15 3 8 1 15 -4 15 -6 0 -10 -5 -10 -12 0 -6 -3 -8 -6 -5 -4 4 -2 13 4
20 7 8 9 17 5 20 -3 4 -2 7 4 7 10 0 37 50 30 56 -2 3 -15 -5 -29 -15 -44 -35
-76 -37 -108 -6 -39 37 -130 59 -130 30z"/>
<path d="M16507 12093 c9 -3 8 -14 -7 -42 -27 -53 -70 -102 -82 -94 -7 3 -8 1
-4 -5 5 -8 -1 -12 -15 -12 -19 0 -20 2 -8 18 12 15 11 15 -7 -1 -16 -15 -17
-19 -4 -27 26 -17 41 -11 76 27 28 31 34 34 34 17 0 -11 -4 -24 -9 -29 -6 -6
-4 -17 4 -29 12 -16 17 -17 30 -6 8 7 15 22 15 34 0 17 -2 18 -10 6 -11 -18
-17 -12 -21 21 -4 26 25 71 51 82 10 3 7 6 -7 6 -26 1 -29 11 -11 29 9 9 7 12
-12 11 -14 0 -19 -3 -13 -6z"/>
<path d="M16587 11963 c-11 -10 -8 -35 3 -28 6 4 8 10 5 15 -3 4 1 11 7 13 7
3 8 6 2 6 -6 1 -14 -2 -17 -6z"/>
<path d="M16441 11887 c2 -3 15 -10 28 -17 19 -9 22 -9 19 1 -2 7 -15 14 -28
16 -13 2 -22 2 -19 0z"/>
<path d="M16500 11845 c0 -14 98 -115 113 -115 4 0 7 6 7 13 1 6 7 1 15 -13
17 -30 20 -21 3 15 -12 27 -23 32 -32 13 -3 -7 -4 -4 -3 7 1 11 -3 19 -10 18
-7 -2 -10 3 -7 11 6 15 -22 30 -38 19 -6 -3 -8 -2 -5 4 3 5 -3 17 -14 26 -24
21 -29 21 -29 2z"/>
<path d="M17620 11800 c0 -5 5 -10 11 -10 5 0 7 5 4 10 -3 6 -8 10 -11 10 -2
0 -4 -4 -4 -10z"/>
<path d="M16697 11688 c6 -7 13 -51 17 -97 5 -64 3 -96 -9 -135 -31 -98 -47
-136 -55 -131 -11 7 -21 -24 -15 -49 3 -12 2 -15 -1 -8 -4 8 -25 -29 -49 -85
-23 -54 -63 -141 -87 -193 -25 -52 -56 -117 -68 -145 -26 -59 -64 -107 -76
-97 -5 4 -3 -1 4 -10 11 -14 11 -16 -5 -12 -11 3 -30 -5 -46 -20 -16 -14 -35
-26 -43 -26 -8 0 -12 -4 -9 -10 3 -5 1 -10 -6 -10 -7 0 -27 -11 -45 -25 -18
-14 -35 -25 -38 -25 -14 0 -74 -49 -68 -55 4 -5 1 -5 -6 -1 -11 7 -60 -24
-140 -89 -30 -23 -51 -49 -46 -54 3 -3 8 -1 12 5 4 6 21 18 39 27 17 9 37 22
45 30 7 7 36 28 65 46 29 19 50 38 47 42 -3 5 2 6 10 3 10 -4 16 -1 16 7 0 7
3 9 7 6 3 -4 20 4 37 16 17 13 39 26 49 30 11 4 15 12 11 18 -4 8 -3 9 5 5 6
-4 28 5 49 22 49 39 103 67 123 64 20 -3 50 66 43 96 -3 11 0 23 6 27 9 5 10
1 6 -16 -7 -23 -7 -23 8 -5 18 22 22 51 6 41 -6 -3 -7 1 -3 10 4 13 8 14 14 4
6 -10 11 -5 19 15 6 16 13 33 17 39 4 7 -1 8 -13 4 -18 -7 -18 -6 1 10 12 10
26 29 32 43 6 14 18 41 27 62 9 20 13 44 9 54 -4 11 -2 15 4 11 10 -7 32 32
39 69 2 12 10 34 18 49 8 15 12 34 9 41 -3 8 -1 20 5 27 5 6 13 27 17 46 5 25
10 30 16 20 6 -9 7 -2 3 19 -6 27 -3 32 12 32 16 0 17 2 4 10 -13 9 -13 12 1
23 21 16 31 84 20 142 -8 44 2 53 12 10 2 -11 3 -4 1 15 -2 20 -12 42 -25 53
-25 20 -47 23 -32 5z m-266 -931 c-10 -9 -11 -8 -5 6 3 10 9 15 12 12 3 -3 0
-11 -7 -18z"/>
<path d="M15766 11301 c-4 -6 -12 -9 -17 -6 -5 4 -9 -2 -9 -12 0 -15 -2 -16
-10 -3 -7 10 -10 11 -10 2 0 -22 32 -27 48 -6 12 16 14 16 9 2 -4 -10 -3 -18
2 -18 9 0 31 -153 31 -219 0 -29 -4 -40 -12 -35 -7 4 -8 3 -4 -5 17 -26 -61
-178 -115 -227 -37 -34 -61 -36 -113 -13 -41 18 -56 19 -102 11 -37 -6 -55 -6
-58 2 -2 6 -5 3 -5 -7 -1 -10 -6 -15 -11 -12 -6 4 -8 15 -5 25 7 22 2 25 -50
34 -37 7 -38 6 -20 -7 19 -15 19 -15 -5 -10 -29 5 -87 92 -96 145 -7 36 -32
71 -45 62 -13 -8 -57 46 -64 79 -8 31 -21 36 -21 7 0 -11 4 -20 9 -20 4 0 6
-4 2 -9 -3 -5 -1 -12 4 -16 6 -3 8 -11 5 -18 -2 -7 16 -30 41 -51 43 -38 83
-119 76 -155 -1 -7 2 -10 7 -7 5 3 7 -6 4 -20 -3 -18 -7 -22 -13 -13 -4 7 -6
17 -3 21 3 4 -8 10 -23 14 -35 9 -44 23 -31 47 5 10 7 21 4 25 -3 3 -6 1 -6
-5 0 -6 -10 -13 -23 -15 -20 -4 -23 -1 -19 19 5 27 -14 31 -44 7 -13 -11 -15
-17 -6 -20 6 -3 10 -10 7 -14 -7 -12 26 -80 37 -74 4 3 8 -1 8 -9 0 -25 149
-135 163 -120 10 9 9 25 0 20 -5 -3 -9 7 -10 21 -1 25 0 26 13 7 8 -10 15 -25
15 -32 1 -7 2 -18 3 -25 0 -6 11 -12 23 -13 13 -1 26 -5 30 -10 5 -4 -2 -4
-14 -1 -13 4 -23 3 -23 -3 0 -5 9 -13 20 -16 11 -3 20 -15 20 -25 0 -15 7 -19
39 -18 22 0 45 -3 53 -7 7 -3 6 0 -3 7 -13 11 -14 15 -3 26 14 13 28 1 30 -28
4 -57 4 -57 19 -30 19 33 18 48 -2 54 -17 6 -63 64 -63 79 0 4 5 7 10 7 6 0 9
-3 8 -7 0 -5 2 -16 6 -25 7 -14 12 -16 28 -7 12 6 35 13 52 16 55 8 110 40
174 100 34 32 62 54 62 48 0 -19 99 100 116 140 9 22 21 51 28 64 6 13 9 35 8
48 -3 18 0 23 9 18 9 -6 10 -1 5 19 -4 15 -3 25 1 23 4 -3 9 11 11 31 2 37
-11 35 -22 -3 -3 -11 -3 -4 0 15 3 19 7 64 9 100 1 36 1 47 -1 25 -2 -22 -9
-57 -16 -79 -10 -31 -13 -35 -19 -20 -5 14 -8 7 -9 -21 -2 -22 -2 -47 -1 -55
0 -10 -1 -11 -5 -2 -3 6 -12 12 -20 12 -8 0 -14 8 -14 18 0 17 -44 128 -66
166 -8 13 -14 15 -18 7z m114 -295 c0 -3 -4 -8 -10 -11 -5 -3 -10 -1 -10 4 0
6 5 11 10 11 6 0 10 -2 10 -4z m-33 -53 c-3 -10 -5 -4 -5 12 0 17 2 24 5 18 2
-7 2 -21 0 -30z m-37 -16 c0 -7 -7 -22 -15 -33 -13 -17 -13 -16 -3 14 13 34
18 40 18 19z m58 -7 c-7 -10 -14 -18 -15 -16 -6 6 9 36 18 36 5 0 4 -9 -3 -20z
m-691 -146 c-3 -3 -12 -4 -19 -1 -8 3 -5 6 6 6 11 1 17 -2 13 -5z m70 -16 c-3
-8 -6 -5 -6 6 -1 11 2 17 5 13 3 -3 4 -12 1 -19z m95 10 c-8 -8 -9 -15 -1 -25
14 -16 -3 -17 -19 -1 -17 17 -15 26 6 31 9 3 19 5 22 6 2 0 -1 -4 -8 -11z m31
-28 c3 -11 3 -20 1 -20 -2 0 -8 9 -14 20 -6 11 -7 20 -2 20 6 0 12 -9 15 -20z
m-193 0 c0 -13 -11 -13 -30 0 -12 8 -11 10 8 10 12 0 22 -4 22 -10z m152 -27
c12 -11 28 -13 55 -8 116 21 203 16 203 -10 0 -16 -65 -40 -81 -29 -6 3 -15 1
-19 -6 -6 -9 -12 -9 -30 0 -13 7 -39 9 -64 6 -36 -6 -45 -3 -73 24 -49 46 -41
65 9 23z"/>
<path d="M14922 11255 c-7 -8 -22 -15 -34 -15 -18 0 -20 -4 -15 -42 5 -32 4
-38 -4 -23 -7 16 -8 14 -4 -10 3 -16 8 -47 12 -67 3 -21 10 -38 14 -38 5 0 9
-9 9 -21 0 -11 4 -17 10 -14 7 4 9 -2 5 -18 -5 -19 -2 -28 14 -37 25 -13 28
-2 4 16 -10 7 -15 16 -11 20 4 4 14 2 21 -4 8 -7 17 -8 21 -4 4 4 13 7 19 7 7
0 13 9 15 20 6 29 32 55 56 56 17 1 18 2 4 6 -10 2 -18 13 -18 24 0 11 -6 22
-14 25 -8 3 -17 15 -20 27 -3 12 -15 33 -27 47 -20 24 -20 24 -14 3 4 -14 2
-23 -5 -23 -7 0 -10 14 -8 37 3 39 -9 51 -30 28z m34 -233 c-9 -8 -26 10 -26
26 1 15 2 15 15 -2 8 -11 13 -21 11 -24z"/>
<path d="M15950 11223 c-3 -23 -2 -39 3 -34 5 5 7 24 5 42 -3 33 -4 33 -8 -8z"/>
<path d="M2720 10893 c0 -970 117 -1679 418 -2548 72 -208 229 -610 265 -680
29 -56 30 -70 4 -71 -12 0 -101 -6 -197 -14 -274 -21 -994 -20 -1185 3 -295
35 -498 80 -760 169 -533 182 -931 414 -1073 628 -22 32 -43 56 -47 52 -5 -4
-5 -2 -2 4 8 14 -27 66 -38 57 -4 -5 -5 -3 -2 3 6 10 -31 73 -59 102 -13 13
-34 16 -34 5 0 -6 235 -467 325 -638 144 -272 286 -478 524 -764 153 -183 360
-403 373 -395 5 3 7 0 6 -8 -2 -7 3 -12 10 -10 8 1 11 -1 8 -6 -7 -12 38 -54
49 -45 4 5 5 3 2 -3 -8 -14 17 -37 28 -26 5 4 5 2 2 -4 -8 -14 26 -47 38 -37
4 5 5 3 2 -3 -15 -26 690 -648 852 -752 14 -9 35 -25 46 -35 41 -37 318 -230
331 -230 7 0 11 -3 9 -7 -3 -4 19 -23 48 -42 28 -18 114 -75 189 -126 79 -54
143 -90 149 -86 7 4 9 3 6 -4 -14 -21 711 -461 735 -446 7 4 8 3 4 -4 -4 -7 9
-19 34 -32 22 -11 82 -44 132 -74 95 -54 146 -83 302 -168 95 -52 137 -76 286
-158 342 -190 664 -359 674 -353 6 3 8 3 4 -2 -4 -4 106 -71 245 -147 351
-194 707 -394 800 -448 l79 -46 -1 -210 c-1 -115 -4 -454 -7 -754 l-7 -545 84
-26 c46 -15 302 -102 569 -194 807 -278 1488 -506 1805 -602 321 -99 875 -259
915 -266 14 -2 32 -7 40 -10 38 -15 204 -56 211 -52 4 3 9 1 11 -3 8 -20 1338
-336 1498 -356 19 -2 42 -7 50 -10 28 -11 593 -116 865 -161 1018 -168 1908
-259 2905 -296 352 -13 1320 -7 1615 10 933 55 1635 138 2425 287 416 78 933
195 1215 274 39 11 138 38 220 61 383 105 964 295 1775 582 298 106 787 284
845 308 17 7 32 13 35 14 75 20 1022 379 1036 392 12 13 14 126 12 757 -3 655
-1 742 12 743 8 1 44 15 80 31 36 17 124 55 195 85 72 30 160 69 198 86 37 17
70 31 73 31 9 0 249 112 254 118 3 4 12 8 20 10 36 7 69 25 63 35 -3 6 -1 7 5
3 6 -4 159 60 339 142 180 82 356 162 391 177 34 15 62 31 62 35 0 4 6 7 13 6
22 -2 296 127 290 137 -3 6 -1 7 5 3 14 -9 183 75 175 87 -3 6 -1 7 5 3 7 -4
31 4 54 17 24 14 176 92 338 174 328 167 474 246 766 419 297 174 674 419 674
437 0 6 3 7 6 4 9 -8 184 112 184 126 0 6 3 7 6 4 8 -8 154 92 154 104 0 5 4
8 9 7 27 -8 699 531 693 555 -2 7 0 9 4 5 6 -7 40 21 191 156 18 16 30 33 26
39 -3 6 -2 7 4 4 13 -8 86 67 76 78 -5 4 -2 5 5 1 23 -14 423 403 638 663 125
152 244 316 239 329 -3 7 -1 11 4 8 11 -7 113 151 193 299 135 249 229 435
221 435 -4 0 -3 4 3 8 10 6 144 255 144 267 0 3 -8 5 -17 5 -12 0 -51 -50
-113 -146 -124 -191 -193 -256 -416 -392 -243 -149 -651 -315 -987 -401 -138
-36 -369 -75 -542 -93 -238 -24 -1112 -12 -1308 18 -24 4 -36 10 -33 17 3 7
46 113 97 237 325 798 501 1479 574 2220 19 198 35 596 35 908 l0 243 -32 -22
c-114 -80 -189 -147 -568 -510 -113 -109 -233 -223 -267 -254 -35 -32 -60 -62
-56 -68 3 -5 2 -7 -4 -4 -5 3 -61 -42 -124 -101 -277 -257 -576 -518 -839
-731 -91 -74 -164 -138 -162 -143 1 -5 -1 -7 -6 -4 -4 2 -50 -28 -102 -68 -52
-39 -142 -108 -200 -152 -170 -130 -455 -333 -591 -421 -134 -87 -489 -301
-576 -348 -29 -15 -50 -32 -46 -38 3 -6 1 -7 -5 -3 -6 3 -91 -38 -189 -92
-240 -134 -513 -277 -715 -377 -92 -45 -164 -86 -160 -90 4 -5 2 -5 -4 -2 -7
4 -72 -22 -145 -57 -74 -35 -262 -121 -419 -191 -157 -70 -298 -133 -315 -140
-44 -20 -255 -112 -535 -232 -720 -309 -976 -397 -2030 -694 -140 -39 -259
-75 -264 -79 -7 -7 50 -1489 58 -1497 2 -2 298 74 495 128 80 22 157 42 171
45 14 3 57 13 95 24 39 10 104 28 145 39 68 17 496 134 545 148 11 3 17 3 14
-1 -14 -15 -642 -201 -1074 -317 -1172 -316 -2641 -608 -3565 -708 -759 -82
-1644 -95 -2490 -36 -1119 79 -2301 281 -3685 630 -143 36 -275 70 -292 76
l-33 11 0 442 c0 244 -3 592 -7 774 l-6 330 -59 22 c-48 17 -71 20 -121 15
l-62 -7 -245 124 c-311 158 -420 208 -682 314 -200 80 -485 199 -553 228 -16
8 -95 42 -175 76 -219 94 -477 208 -548 241 -35 16 -65 29 -68 29 -3 0 -31 12
-62 26 -31 14 -155 71 -274 125 -200 91 -663 318 -838 411 -41 22 -118 63
-170 90 -344 182 -833 469 -1085 638 -172 114 -526 374 -707 517 -37 29 -70
53 -74 53 -3 -1 -11 5 -17 13 -7 7 -34 31 -62 53 -149 117 -430 351 -515 428
-131 119 -202 176 -212 170 -6 -4 -8 -3 -5 3 9 14 -131 146 -145 137 -6 -4 -8
-3 -5 3 4 6 -35 50 -86 98 -51 49 -179 173 -285 277 -115 113 -197 186 -204
182 -6 -4 -8 -3 -4 4 14 23 -500 472 -540 472 -12 0 -14 -55 -14 -307z m60
242 c15 -18 35 -20 24 -3 -4 7 -3 8 5 4 6 -4 9 -11 6 -16 -3 -4 19 -28 47 -51
52 -42 174 -149 251 -218 53 -49 125 -117 254 -244 71 -69 116 -106 124 -101
7 4 10 3 5 -4 -7 -11 270 -289 285 -285 5 2 8 -1 6 -5 -1 -4 34 -41 79 -82
134 -125 250 -229 280 -252 16 -12 34 -28 39 -34 62 -69 615 -515 628 -507 6
3 7 2 4 -4 -4 -6 15 -25 41 -44 26 -18 49 -36 52 -39 9 -12 160 -121 165 -120
4 1 15 -10 26 -25 12 -14 25 -23 30 -20 5 4 9 2 9 -3 0 -5 37 -35 82 -68 46
-32 112 -81 148 -107 100 -75 388 -264 555 -364 327 -196 744 -425 759 -416 6
3 8 2 3 -2 -4 -5 21 -24 55 -43 88 -47 698 -353 794 -398 302 -139 658 -293
668 -287 6 3 8 2 3 -2 -8 -9 66 -42 503 -230 303 -130 456 -193 637 -266 218
-87 349 -146 612 -277 252 -126 254 -127 215 -134 -32 -6 -616 -37 -1644 -88
-107 -5 -379 -16 -605 -25 -962 -36 -1514 -55 -1561 -55 l-51 0 -7 -1382 c-3
-760 -9 -1384 -11 -1386 -2 -3 -37 14 -77 38 -288 168 -1246 693 -1265 693 -7
0 -13 4 -13 8 0 4 -98 60 -217 125 -258 139 -278 150 -408 222 -393 218 -455
253 -750 424 -319 185 -713 439 -1041 673 -23 17 -86 62 -140 100 -225 160
-562 440 -815 677 -80 75 -150 134 -155 130 -5 -4 -6 -3 -2 2 4 5 -45 61 -109
125 -487 485 -763 855 -1023 1373 -30 58 -59 104 -64 101 -5 -3 -6 -1 -2 5 4
6 1 22 -5 34 -7 13 21 -8 61 -45 167 -155 415 -296 760 -432 352 -139 618
-209 955 -251 332 -41 1446 -21 1476 27 3 6 -9 48 -28 92 -380 896 -580 1647
-653 2450 -25 279 -41 1027 -21 1027 5 0 14 -7 21 -15z m25705 -347 c-7 -373
-19 -618 -41 -818 -63 -592 -201 -1170 -424 -1781 -39 -107 -72 -198 -73 -204
-1 -5 -4 -12 -7 -15 -3 -3 -19 -39 -34 -80 -16 -41 -53 -130 -82 -198 -29 -68
-51 -129 -48 -137 12 -31 287 -48 824 -49 482 -1 583 5 846 49 350 59 762 200
1107 377 64 34 117 65 117 71 0 6 3 8 6 4 15 -14 216 129 312 222 44 44 55 37
24 -14 -10 -16 -52 -95 -92 -175 -41 -80 -84 -161 -95 -180 -12 -19 -46 -75
-76 -125 -29 -49 -78 -125 -109 -169 -30 -43 -62 -88 -70 -100 -51 -73 -267
-337 -352 -430 -9 -10 -15 -23 -12 -28 3 -5 2 -7 -3 -6 -4 1 -116 -106 -248
-238 -290 -291 -416 -408 -632 -588 -56 -46 -98 -88 -95 -93 4 -4 3 -5 -2 -1
-5 4 -29 -9 -54 -30 -26 -20 -55 -44 -66 -52 -10 -8 -33 -27 -50 -41 -97 -81
-484 -355 -756 -534 -91 -60 -171 -116 -178 -124 -7 -9 -16 -15 -20 -15 -16 4
-92 -49 -85 -58 3 -7 1 -8 -5 -4 -11 7 -94 -39 -100 -55 -2 -5 -9 -9 -15 -9
-7 0 -50 -23 -97 -51 -390 -236 -1181 -650 -1614 -845 -428 -194 -746 -339
-835 -380 -51 -24 -95 -44 -97 -44 -1 0 -61 -27 -133 -60 -71 -32 -194 -87
-273 -120 -79 -34 -156 -68 -173 -75 -101 -47 -241 -103 -247 -99 -4 3 -7 141
-7 307 -2 978 -15 2499 -23 2503 -8 5 -3522 193 -3617 194 -27 0 -41 4 -35 9
5 5 120 41 255 80 292 84 627 192 808 261 224 84 480 193 475 202 -3 4 1 6 8
3 24 -10 1301 553 1291 568 -3 6 -1 7 5 3 14 -9 173 64 166 75 -3 5 1 6 9 3
38 -14 1136 567 1547 819 136 83 413 261 434 278 6 5 63 46 126 90 63 45 202
148 308 228 106 80 217 164 247 187 133 99 394 318 389 326 -3 5 -2 8 3 7 17
-4 43 14 36 25 -3 6 -3 8 2 4 7 -6 114 79 235 188 19 17 62 55 95 84 295 261
606 560 598 574 -3 5 -1 6 6 2 15 -9 440 394 435 412 -2 7 0 11 5 8 5 -3 21 6
37 20 100 88 206 174 215 174 8 0 9 -101 4 -332z m-22034 -4558 c50 -22 95
-37 99 -35 5 3 10 1 12 -4 7 -20 620 -256 1158 -446 310 -110 1092 -366 1340
-439 47 -14 213 -64 370 -111 711 -215 1517 -430 2130 -569 2072 -470 3855
-607 5510 -425 938 103 2471 409 3625 725 1006 275 2071 640 2915 999 47 20
117 49 155 65 82 33 532 233 573 254 l29 15 6 -232 c11 -365 21 -3650 12
-3868 l-7 -196 -287 -108 c-503 -191 -1583 -585 -1602 -585 -5 0 -7 -5 -3 -12
4 -7 3 -8 -4 -4 -7 4 -81 -17 -164 -47 -1160 -415 -1927 -637 -2828 -817 -908
-181 -1691 -277 -2725 -332 -312 -16 -1399 -16 -1725 0 -2204 112 -4248 498
-6614 1249 -270 85 -505 165 -1581 535 -176 61 -365 125 -420 143 l-100 34 0
63 c0 714 26 4188 31 4188 2 0 44 -18 95 -40z m17844 29 c-11 -5 -120 -53
-242 -108 -123 -54 -220 -101 -215 -106 4 -5 2 -5 -5 -1 -6 3 -37 -5 -68 -20
-31 -14 -58 -24 -60 -22 -2 2 119 62 268 135 186 90 283 131 307 131 29 1 32
-1 15 -9z"/>
<path d="M10289 3779 c-223 -19 -418 -116 -545 -270 -140 -169 -163 -400 -61
-593 39 -75 173 -211 265 -271 95 -60 331 -179 502 -250 109 -45 282 -135 331
-171 104 -76 159 -161 167 -261 4 -56 1 -70 -27 -128 -67 -136 -221 -214 -424
-215 -274 -1 -553 159 -696 400 -45 75 -93 188 -111 263 -11 42 -15 47 -41 47
l-29 0 0 -405 0 -405 26 0 c18 0 39 14 70 49 84 94 157 99 359 26 147 -54 271
-75 430 -75 293 0 504 79 681 255 122 122 174 241 174 403 0 155 -54 284 -168
398 -53 54 -185 147 -208 147 -7 0 -11 3 -9 7 7 11 -199 114 -420 210 -252
110 -312 140 -388 197 -33 25 -63 41 -70 37 -7 -4 -9 -4 -5 1 4 4 -7 26 -24
47 -37 48 -57 99 -58 153 0 74 18 114 83 180 83 84 141 106 294 113 134 5 225
-12 334 -64 200 -96 347 -267 404 -471 17 -62 18 -63 53 -63 l34 0 -6 133 c-3
72 -9 234 -12 360 -6 225 -7 227 -28 227 -18 0 -26 -10 -40 -55 -38 -120 -91
-124 -346 -27 -167 64 -321 86 -491 71z"/>
<path d="M16905 3779 c-172 -13 -347 -58 -493 -125 -41 -19 -75 -34 -77 -34
-10 0 -139 -81 -200 -125 -87 -64 -218 -202 -279 -294 -64 -95 -130 -239 -158
-341 -19 -73 -22 -108 -22 -255 0 -156 3 -177 28 -259 15 -49 47 -130 72 -180
52 -108 139 -230 156 -220 6 4 8 3 4 -4 -9 -15 94 -114 179 -172 190 -129 425
-211 684 -241 149 -17 439 -7 561 19 213 46 412 144 587 290 l43 36 0 89 0 89
-64 -59 c-179 -168 -349 -265 -541 -309 -61 -15 -118 -19 -240 -18 -191 0
-271 16 -392 75 -109 52 -221 159 -282 269 -50 92 -105 261 -127 395 -23 139
-23 402 -1 517 37 186 113 359 199 454 30 32 47 58 42 65 -4 7 -3 9 4 5 6 -3
35 12 64 34 291 224 730 224 1027 1 30 -22 58 -38 63 -35 5 3 7 1 6 -4 -2 -6
18 -35 45 -65 64 -76 115 -164 148 -256 25 -71 29 -76 58 -79 l31 -3 0 375 0
376 -28 0 c-25 0 -31 -6 -40 -39 -15 -49 -45 -87 -85 -107 -44 -24 -119 -14
-267 35 -172 57 -327 90 -472 101 -68 5 -125 9 -128 8 -3 0 -50 -4 -105 -9z"/>
<path d="M11667 3733 c-4 -3 -7 -134 -7 -290 0 -253 2 -284 16 -290 28 -11 47
11 64 75 27 97 79 191 142 254 103 103 178 127 426 135 l172 6 0 -914 c0 -633
-3 -926 -11 -954 -25 -88 -116 -135 -261 -135 -77 0 -78 0 -78 -25 l0 -25 650
0 650 0 0 24 c0 23 -3 23 -102 28 -113 5 -160 22 -211 75 -45 48 -48 121 -45
1063 l3 855 130 3 c72 2 165 -2 207 -7 133 -18 254 -93 324 -201 16 -25 31
-47 34 -50 3 -3 6 -9 7 -15 1 -5 17 -50 35 -100 30 -81 36 -90 58 -90 l25 0 3
293 2 292 -1113 0 c-613 0 -1117 -3 -1120 -7z"/>
<path d="M14122 3713 c3 -28 4 -28 88 -31 47 -2 106 -10 131 -18 62 -20 114
-71 122 -121 12 -72 8 -1757 -4 -1794 -28 -82 -98 -120 -239 -128 -89 -6 -95
-7 -98 -28 l-3 -23 650 0 651 0 0 24 c0 23 -2 24 -98 28 -147 6 -220 49 -242
144 -11 44 -14 1685 -4 1757 9 63 58 120 122 141 26 8 86 16 135 18 l87 2 0
28 0 28 -651 0 -650 0 3 -27z"/>
<path d="M18320 3711 l0 -29 103 -4 c74 -2 112 -8 140 -22 61 -30 95 -70 104
-124 4 -26 8 -420 8 -877 l0 -830 -26 -56 c-16 -33 -42 -68 -62 -84 -47 -35
-144 -65 -213 -65 -51 0 -54 -1 -54 -25 l0 -25 425 0 425 0 0 25 c0 23 -4 25
-47 25 -72 0 -173 27 -213 57 -45 35 -57 49 -80 98 -19 39 -20 72 -19 905 l0
865 93 -190 c88 -179 795 -1607 854 -1725 44 -88 61 -83 120 42 48 101 375
777 567 1173 53 110 135 281 183 380 48 99 103 214 124 255 l37 75 0 -885 c1
-554 -3 -898 -9 -921 -22 -78 -99 -119 -240 -128 -89 -6 -95 -7 -98 -29 l-3
-22 650 0 651 0 0 25 c0 25 -1 25 -78 25 -161 0 -254 56 -267 160 -3 30 -5
442 -3 915 2 703 5 864 17 884 38 68 114 100 244 102 l87 1 0 29 0 29 -497 0
c-274 0 -503 -4 -510 -8 -7 -4 -24 -33 -37 -65 -14 -31 -47 -101 -72 -154 -26
-54 -68 -143 -94 -198 -26 -55 -134 -282 -240 -505 -106 -223 -193 -410 -194
-416 -1 -7 -7 -18 -13 -25 -6 -8 -14 -24 -17 -36 -4 -13 -12 -23 -17 -23 -6 0
-100 183 -210 408 -110 224 -268 545 -351 715 l-151 307 -509 0 -508 0 0 -29z"/>
<path d="M15120 11087 c0 -5 9 -20 20 -34 11 -14 20 -22 20 -17 -1 12 -39 61
-40 51z"/>
<path d="M15051 11014 c0 -11 3 -14 6 -6 3 7 2 16 -1 19 -3 4 -6 -2 -5 -13z"/>
<path d="M15510 10609 c0 -5 5 -7 10 -4 6 3 10 8 10 11 0 2 -4 4 -10 4 -5 0
-10 -5 -10 -11z"/>
<path d="M14007 10473 c3 -7 9 -10 14 -7 14 8 11 21 -5 21 -8 0 -12 -6 -9 -14z"/>
<path d="M13477 10453 c27 -23 69 -51 158 -110 39 -25 72 -49 75 -54 13 -19
83 -68 91 -63 5 3 4 -6 -3 -20 -14 -32 -3 -46 17 -20 16 21 20 69 5 59 -5 -3
-42 19 -82 48 -40 30 -89 62 -108 72 -19 10 -55 32 -80 50 -25 18 -56 38 -70
44 l-25 12 22 -18z"/>
<path d="M14020 10445 c0 -16 31 -63 45 -69 13 -5 14 -2 4 15 -11 22 -49 63
-49 54z"/>
<path d="M15916 10374 c-11 -28 -6 -38 9 -18 8 10 15 22 15 27 0 13 -18 7 -24
-9z"/>
<path d="M15865 10360 c-16 -17 -16 -20 -3 -15 9 4 19 13 22 21 7 19 2 18 -19
-6z"/>
<path d="M14020 10316 c44 -22 64 -18 53 11 -3 8 -22 13 -52 12 l-46 0 45 -23z"/>
<path d="M15890 10330 c0 -5 5 -10 11 -10 5 0 7 5 4 10 -3 6 -8 10 -11 10 -2
0 -4 -4 -4 -10z"/>
<path d="M15411 10294 c0 -11 3 -14 6 -6 3 7 2 16 -1 19 -3 4 -6 -2 -5 -13z"/>
<path d="M15702 10259 c-41 -29 -92 -57 -115 -64 -23 -7 -41 -18 -39 -25 1 -7
-4 -23 -13 -36 -20 -31 -19 -33 11 -45 44 -16 67 -3 62 36 -2 19 -1 32 3 29 7
-4 34 24 34 35 -1 9 52 51 64 51 6 0 11 5 11 11 0 5 5 7 10 4 6 -3 10 -1 10 4
0 6 7 11 15 11 8 0 15 5 15 10 0 6 3 9 8 8 4 -2 8 1 10 7 8 22 -17 12 -86 -36z"/>
<path d="M15846 10297 c-18 -13 -18 -14 0 -14 10 0 25 6 32 14 11 11 11 13 0
13 -8 0 -22 -6 -32 -13z"/>
<path d="M14269 10268 c14 -37 60 -128 66 -128 6 0 -55 133 -67 145 -5 6 -5
-1 1 -17z"/>
<path d="M15413 10200 c0 -30 2 -43 4 -27 2 15 2 39 0 55 -2 15 -4 2 -4 -28z"/>
<path d="M15500 10203 c0 -4 5 -15 10 -23 8 -13 10 -13 10 2 0 9 -4 20 -10 23
-5 3 -10 3 -10 -2z"/>
<path d="M14303 10081 c4 -29 17 -39 17 -13 0 11 -5 24 -10 27 -6 4 -9 -2 -7
-14z"/>
<path d="M15350 10070 c0 -6 -22 -25 -50 -42 -27 -17 -50 -32 -50 -34 0 -1 9
-2 19 -1 11 0 18 4 16 7 -2 3 26 7 63 9 132 6 147 8 170 20 24 13 29 23 10 20
-31 -4 -48 2 -48 16 0 19 -10 19 -24 0 -10 -14 -15 -14 -48 0 -44 18 -58 19
-58 5z"/>
<path d="M14290 9838 c-19 -15 -21 -18 -6 -14 11 4 23 2 26 -5 5 -6 9 -3 13
10 7 30 -4 33 -33 9z"/>
<path d="M15040 9650 c-6 -11 -8 -20 -6 -20 3 0 10 9 16 20 6 11 8 20 6 20 -3
0 -10 -9 -16 -20z"/>
<path d="M14507 9644 c-3 -3 3 -15 13 -27 11 -11 17 -25 13 -30 -3 -6 -1 -7 5
-3 9 5 7 15 -5 34 -9 15 -18 28 -18 30 -1 1 -4 -1 -8 -4z"/>
<path d="M15379 9556 c14 -14 26 -24 29 -22 7 8 -8 25 -31 37 -21 11 -21 10 2
-15z"/>
<path d="M14568 9523 c14 -27 30 -50 34 -51 4 -2 6 -8 2 -13 -3 -5 0 -9 5 -9
6 0 10 -3 10 -7 -3 -19 3 -32 26 -59 14 -16 25 -35 25 -41 0 -7 5 -13 10 -13
6 0 10 -7 10 -15 0 -8 11 -31 25 -51 29 -43 32 -71 8 -77 -15 -4 -16 -5 -2 -6
23 -1 68 39 51 45 -6 3 -9 10 -6 15 8 14 -16 40 -30 32 -6 -3 -8 -3 -4 2 4 4
-5 22 -20 39 -15 17 -56 82 -90 144 -35 61 -67 112 -72 112 -5 0 3 -21 18 -47z"/>
<path d="M15437 9514 c-7 -7 43 -64 57 -64 5 0 3 6 -3 13 -6 8 -7 17 -3 21 4
4 0 6 -8 4 -8 -1 -14 2 -13 9 2 8 -4 10 -14 6 -11 -4 -14 -3 -9 5 8 13 3 16
-7 6z"/>
<path d="M15507 9446 c-5 -13 48 -75 57 -65 2 2 -9 21 -24 42 -19 25 -30 33
-33 23z"/>
<path d="M14640 9246 c0 -2 8 -10 18 -17 15 -13 16 -12 3 4 -13 16 -21 21 -21
13z"/>
<path d="M15636 9165 c2 -16 9 -50 14 -75 l9 -45 -5 53 c-3 32 -1 52 6 52 5 0
10 10 9 23 0 20 -1 21 -8 2 -8 -19 -8 -19 -19 0 -10 18 -11 16 -6 -10z"/>
<path d="M15666 9039 c-3 -22 -3 -46 1 -54 5 -8 9 9 10 41 2 64 -2 69 -11 13z"/>
<path d="M15692 8978 c-1 -16 -6 -28 -12 -28 -5 0 -7 -7 -3 -16 10 -26 25 1
20 37 -3 29 -4 30 -5 7z"/>
<path d="M15697 8824 c3 -27 10 -56 15 -64 5 -9 6 4 2 35 -9 67 -23 93 -17 29z"/>
<path d="M15751 8324 c0 -11 3 -14 6 -6 3 7 2 16 -1 19 -3 4 -6 -2 -5 -13z"/>
<path d="M15905 8066 c-19 -14 -18 -15 15 -6 22 6 38 6 44 0 7 -7 6 -10 -2
-10 -8 0 -4 -15 12 -42 53 -94 103 -414 113 -738 8 -233 -7 -316 -111 -645
-30 -93 -66 -213 -81 -265 -15 -52 -41 -135 -57 -184 -16 -49 -26 -91 -24 -94
3 -2 1 -13 -5 -23 -7 -14 -2 -33 22 -79 17 -33 35 -62 39 -65 4 -3 1 28 -6 68
-8 39 -14 91 -14 114 0 42 55 255 91 353 12 30 20 65 20 78 0 13 2 21 7 19 4
-3 8 7 9 21 1 15 17 77 36 137 19 61 47 162 61 226 35 157 35 349 1 652 -27
237 -44 325 -77 396 -11 25 -21 57 -22 71 -1 30 -40 39 -71 16z"/>
<path d="M15996 6615 c-9 -26 -7 -32 5 -12 6 10 9 21 6 23 -2 3 -7 -2 -11 -11z"/>
<path d="M15466 6479 c-8 -30 -17 -72 -20 -94 -3 -22 5 0 19 50 13 49 22 91
20 93 -2 2 -11 -20 -19 -49z"/>
<path d="M15381 6454 c0 -11 3 -14 6 -6 3 7 2 16 -1 19 -3 4 -6 -2 -5 -13z"/>
<path d="M15361 6374 c0 -11 3 -14 6 -6 3 7 2 16 -1 19 -3 4 -6 -2 -5 -13z"/>
<path d="M16001 6320 c-18 -116 -19 -206 -1 -195 5 3 8 34 6 68 -2 34 0 89 5
121 6 32 8 64 6 70 -2 5 -9 -23 -16 -64z"/>
<path d="M15431 6324 c0 -11 3 -14 6 -6 3 7 2 16 -1 19 -3 4 -6 -2 -5 -13z"/>
<path d="M15341 6304 c0 -11 3 -14 6 -6 3 7 2 16 -1 19 -3 4 -6 -2 -5 -13z"/>
<path d="M15901 6274 c0 -11 3 -14 6 -6 3 7 2 16 -1 19 -3 4 -6 -2 -5 -13z"/>
<path d="M15326 6265 c-9 -26 -7 -32 5 -12 6 10 9 21 6 23 -2 3 -7 -2 -11 -11z"/>
<path d="M15891 6234 c0 -11 3 -14 6 -6 3 7 2 16 -1 19 -3 4 -6 -2 -5 -13z"/>
<path d="M15882 6180 c0 -14 2 -19 5 -12 2 6 2 18 0 25 -3 6 -5 1 -5 -13z"/>
<path d="M15872 6095 c0 -16 2 -22 5 -12 2 9 2 23 0 30 -3 6 -5 -1 -5 -18z"/>
<path d="M15365 6004 c-4 -16 -10 -41 -15 -55 -8 -27 -3 -76 10 -84 4 -2 10
32 14 77 7 82 2 114 -9 62z"/>
<path d="M15065 5919 c-4 -6 -4 -13 -1 -16 3 -4 6 -1 6 6 0 7 5 9 12 5 7 -4 8
-3 4 4 -9 15 -13 15 -21 1z"/>
<path d="M15880 5899 c0 -3 11 -20 25 -39 14 -19 25 -30 25 -24 -1 10 -50 73
-50 63z"/>
<path d="M16385 5820 c10 -11 20 -20 23 -20 3 0 -3 9 -13 20 -10 11 -20 20
-23 20 -3 0 3 -9 13 -20z"/>
<path d="M15208 5823 c10 -4 10 -8 1 -19 -10 -12 -9 -13 5 -8 9 3 16 10 16 16
0 5 5 6 10 3 6 -3 10 -1 10 4 0 6 -12 11 -27 10 -16 0 -22 -3 -15 -6z"/>
<path d="M15340 5792 c-33 -34 -49 -66 -40 -77 7 -8 1 -37 -15 -85 -29 -87
-29 -86 -10 -66 9 8 14 19 13 23 -5 14 25 93 34 93 5 0 6 5 3 10 -4 6 -1 17 5
25 7 8 10 15 6 15 -3 0 1 16 9 37 17 41 16 48 -5 25z"/>
<path d="M15146 5613 c-6 -14 -5 -15 5 -6 7 7 10 15 7 18 -3 3 -9 -2 -12 -12z"/>
<path d="M14926 5470 c15 -28 29 -48 31 -46 6 5 -41 95 -50 96 -5 0 4 -23 19
-50z"/>
</g>
</svg>
